<svg width="64" height="64" viewBox="0 0 64 64" fill="none" xmlns="http://www.w3.org/2000/svg">
  <!-- 背景圆形 -->
  <circle cx="32" cy="32" r="30" fill="#E53E3E" stroke="#C53030" stroke-width="2"/>
  
  <!-- 天安门图案 -->
  <g transform="translate(16, 20)">
    <!-- 主体建筑 -->
    <rect x="4" y="12" width="24" height="8" fill="#FFD700" rx="1"/>
    <!-- 屋顶 -->
    <path d="M2 12 L16 6 L30 12 Z" fill="#8B4513"/>
    <!-- 门洞 -->
    <rect x="13" y="15" width="6" height="5" fill="#E53E3E" rx="3"/>
    <!-- 城墙 -->
    <rect x="0" y="20" width="32" height="4" fill="#D69E2E"/>
    <!-- 装饰线条 -->
    <line x1="4" y1="14" x2="28" y2="14" stroke="#B7791F" stroke-width="1"/>
  </g>
  
  <!-- 装饰性中文字符 "中" -->
  <g transform="translate(32, 42)">
    <rect x="-6" y="-6" width="12" height="2" fill="#FFD700"/>
    <rect x="-1" y="-8" width="2" height="12" fill="#FFD700"/>
    <rect x="-6" y="-2" width="12" height="2" fill="#FFD700"/>
  </g>
  
  <!-- 装饰星星 -->
  <g fill="#FFD700">
    <polygon points="8,12 9,15 12,15 10,17 11,20 8,18 5,20 6,17 4,15 7,15" opacity="0.8"/>
    <polygon points="56,16 57,18 59,18 58,19 58.5,21 56,20 53.5,21 54,19 53,18 55,18" opacity="0.6"/>
    <polygon points="52,48 53,50 55,50 54,51 54.5,53 52,52 49.5,53 50,51 49,50 51,50" opacity="0.7"/>
  </g>
</svg> 